<?xml version="1.0" encoding="UTF-8"?>
<svg id="Layer_2" data-name="Layer 2" xmlns="http://www.w3.org/2000/svg" viewBox="0 0 277.12 277.12">
  <defs>
    <style>
      .cls-1 {
        fill: #fbecf7;
        fill-rule: evenodd;
        stroke-width: 0px;
      }
    </style>
  </defs>
  <g id="Layer_1-2" data-name="Layer 1">
    <path class="cls-1" d="m129.35,277.06l-13.09-1.51c-.41-3.53-.16-8.49-.15-12.15l.06-84.63-35.18-.03v-40.02l35.15-.05c.23-4.05.03-8.72.03-12.84,0-11.51-.55-25.42,2.22-36.07,1.28-4.93,3.28-9.39,5.84-13.55,2.78-4.51,6.41-8.52,10.58-11.76,16.54-12.89,40.34-10.62,61.1-7.95,4.26.55,3.54.09,3.53,2.85l.02,31.74c-10.4,1.21-28.06-3.46-36.08,7.83-3.75,5.27-4,10.48-3.99,18.04,0,7.28,0,14.55,0,21.82l38.42.04-6.14,39.94-32.21.03v72.6c0,2.4.25,23.48-.15,24-.18.12,0,.05-.42.2-.17.06-.15.05-.3.08-2.79.67-11.27.96-12.32,1.39h68.19c15.06,0,19.53.94,33.29-4.93,6.17-2.63,13.71-8.9,17.83-14.11,2.25-2.84,4.3-5.73,5.93-9.02,1.81-3.63,3.54-8.01,4.45-12.54,1.49-7.44,1.09-8.59,1.09-15.9V49.92c.01-10.23-4.08-20.72-9.71-28.52-2.1-2.91-3.39-4.25-6.03-6.89-4.86-4.86-9.19-7.34-15.22-10.27-.95-.46-2.11-.85-3.04-1.2-1.01-.38-2.1-.75-3.19-1.06-2.24-.64-4.51-1.13-7.02-1.47-5.31-.74-19.32-.45-25.22-.45H54.18c-10.8,0-15.07.78-24.8,4.93-1.09.46-1.76.95-2.78,1.47-6.35,3.22-12.63,9.27-16.9,15.05-2.71,3.66-4.97,8.09-6.65,12.56C1.54,38.11.5,43.01.08,48.08c-.18,2.2,0,13.94,0,17.16v153.46c0,5.79-.21,11.33.78,16.2.79,3.84,1.47,6.34,2.85,9.89,1.06,2.73,2.76,5.95,4.34,8.4,3.62,5.64,7.15,9.14,12.29,13.38,4.2,3.47,11.69,7.07,16.93,8.56,8.59,2.44,14.47,1.92,23.75,1.92h68.34Z"/>
  </g>
</svg>