<?xml version="1.0" encoding="UTF-8"?>
<svg id="Layer_2" data-name="Layer 2" xmlns="http://www.w3.org/2000/svg" viewBox="0 0 277.13 277.13">
  <defs>
    <style>
      .cls-1 {
        fill: #fbecf7;
        fill-rule: evenodd;
        stroke-width: 0px;
      }
    </style>
  </defs>
  <g id="Layer_1-2" data-name="Layer 1">
    <path class="cls-1" d="m36.21,155.01c-.04-17.19-.27-34.64.32-51.73.27-7.89.68-15.1,2.28-22.54,1.88-8.7,5.46-16.58,10.68-23.13,3.14-3.94,7.18-7.39,11.2-10.4,3.11-2.33,8.56-4.81,12.32-6.16,5.81-2.09,13.91-3.84,20.66-4.04,8.05-.24,15.91-.68,24.02-.74l35.29-.05c18.54.05,40.38-.81,56.69,7.23,2.5,1.23,4.63,2.54,6.74,3.98,3.43,2.34,7.12,5.61,9.75,8.73,2.19,2.59,3.87,4.59,5.66,7.82,9.58,17.2,8.94,37.13,8.97,56.86v34.36c-.04,12.57.05,27.17-2.23,39.22-1.06,5.57-2.87,11.01-5.11,15.58l-4.9,8.03-3.64,4.3c-2.11,2.53-8.67,7.69-11.44,9.25-4.34,2.45-9.21,4.66-14.68,6.02-15.54,3.85-33.38,3.03-49.51,3.1l-26.42.04c-28.96-.09-55.79,1.38-74.24-22.57-13.45-17.47-12.35-41.75-12.4-63.15h0ZM0,49.51v178.1c0,3.76.77,7.7,1.55,10.83.41,1.64.88,3.19,1.43,4.67,1.12,3,2.28,5.65,3.96,8.42,4.84,7.99,10.53,13.76,18.55,18.59,6.8,4.1,16.23,7.01,24.03,7.01h178.1c5.92,0,12.46-1.72,17.76-3.85,3-1.21,7.47-3.68,9.98-5.54,6.3-4.68,10.67-9.29,14.76-16.09,4.09-6.8,7.01-16.21,7.01-24.03V49.51c0-4.77-1.39-11.23-2.98-15.49-.26-.69-.59-1.59-.87-2.27-.34-.83-.64-1.32-.98-2.16-.27-.67-.57-1.3-.98-1.98-2.04-3.42-3.44-6.11-6.25-9.27l-4.52-4.71c-.63-.64-1.01-.9-1.66-1.48-3.42-3.05-5.69-4.11-9.25-6.27l-4.12-1.97c-5.31-2.16-11.98-3.9-17.9-3.9H49.51c-4.78,0-11.24,1.39-15.49,2.98-.69.26-1.59.59-2.27.87l-6.15,3.09c-2.84,1.72-6.6,4.25-8.93,6.59l-4.53,4.71c-1.03,1.16-1.83,2.29-2.75,3.53-3.46,4.66-6.44,11.28-7.84,16.91-.78,3.13-1.55,7.07-1.55,10.83h0Zm133.65,36.72c14.96-1.53,28.85,3.68,39.48,12.77l6.39,6.73c.51.69.96,1.17,1.47,1.85,10.14,13.75,12.75,32.74,6.81,48.99-1.19,3.25-2.65,6.22-4.25,8.87-1.79,2.98-3.55,5.33-5.5,7.62-1.25,1.48-5.15,5.09-6.72,6.4-13.46,11.31-34.34,14.63-50.96,8.3-7.57-2.88-14.4-7.11-19.86-13.02-8.12-8.79-13.13-18.68-14.32-31.5-.73-7.86.36-15.98,2.91-22.73,1.15-3.04,2.66-6.38,4.2-8.93,4.64-7.72,12.16-15.08,20.1-19.25,6.3-3.32,12.15-5.28,20.25-6.11h0Zm57.43-14.41c7.29-1.34,13.03,4.02,14.07,9.94,1.31,7.46-3.86,13.18-9.96,14.23-7.53,1.28-13.14-3.92-14.2-10.01-.72-4.1.6-7.04,2.41-9.54.74-1.01.58-.92,1.52-1.63,2.02-1.54,2.71-2.35,6.17-2.98h0ZM54.66,155.56c.04,10.89-.2,25.38,1.91,35.63,2.43,11.79,7.39,17.93,14.23,23.08,7.33,5.53,18.86,7.15,29.89,7.56,11.88.44,49.78.72,65.77.37,19.47-.43,38.55-.8,49.19-18.01,7.84-12.68,6.67-36.75,6.71-51.59.04-14.45.1-33.43-.3-47.11-.34-11.73-.6-22.67-6.5-32.84-1.99-3.42-6.32-7.77-9.53-10.06-8.65-6.17-19.34-7.15-31.81-7.59-14.08-.5-66.18-.9-81.38.52-4.82.45-9.4,1.29-13.61,2.82-2.15.78-3.84,1.5-5.73,2.58-9.32,5.35-14.49,13.77-16.81,24.22-1.93,8.7-2.02,21.55-2.03,30.87v39.54h0Zm49.81-14.96c.81,17.94,16.82,33.09,36.11,31.92,10.12-.62,19.14-5.57,25.03-13.37,13.79-18.28,6.25-44.01-14.66-52.35-4.33-1.73-9.31-2.7-14.51-2.3-5.49.42-9.15,1.58-13.48,3.68-3.34,1.62-7.96,5.14-9.63,7.38-.58.79-1.3,1.53-1.92,2.32-.59.76-1.23,1.61-1.77,2.47-1.13,1.78-1.99,3.51-2.85,5.65-1.7,4.22-2.54,9.53-2.31,14.6h0Z"/>
  </g>
</svg>