<?xml version="1.0" encoding="UTF-8"?>
<svg id="Layer_2" data-name="Layer 2" xmlns="http://www.w3.org/2000/svg" viewBox="0 0 277.12 277.12">
  <defs>
    <style>
      .cls-1 {
        fill: #fbecf7;
        fill-rule: evenodd;
        stroke-width: 0px;
      }
    </style>
  </defs>
  <g id="Layer_1-2" data-name="Layer 1">
    <path class="cls-1" d="m156.11,40.09c8.06-.16,16.33.08,24.4.02.66,3.62,1.42,6.69,2.56,9.97,3.08,8.82,3.74,8.97,9.31,15.81.98,1.2,1.91,2.27,2.82,3.47l8.79,10.05c1.01,1.05,2.22,1.8,3.43,2.85,4.44,3.85,15.01,8.97,21.93,9.49v27.94c-9.99-.28-19.59-2.44-28.25-5.43-5.16-1.78-12.38-5.26-16.75-8.38-1.69-1.21-3.77-3.39-4.72-3.52-.2,9.51-.06,18.94,0,28.44.05,9.42,0,18.85-.02,28.27-.03,22.9-1.07,44.63-16.32,61.68-1.14,1.28-2.91,3.52-4.24,4.62l-2.87,2.5c-2.87,3-8.6,6.53-12.71,8.35-6.96,3.09-14.07,5.16-22.65,5.64-13.42.75-23.9-1.27-35.39-6.77-1.95-.93-4.85-2.8-6.62-4.09-5.92-4.31-11.12-10.54-14.5-17.27-11.48-22.92-6.77-56.42,11.01-75.59,1.09-1.17,2.1-2.6,3.37-3.66l5.74-4.98c4.34-3.63,10.52-6.74,15.9-8.66,5.82-2.08,17.95-4.47,24.67-3.46l-.05,30.11c-3.2.21-7.02-.37-10.42-.27-15.4.47-26.34,11.62-27.9,26.24-1.02,9.55,1.42,18.14,7.05,25.11l5.41,5.3c2.61,2.07,3.67,2.7,6.37,4.54,7.38,5,16.77,6.97,25.74,4.45,6.61-1.86,9.42-3.64,12.89-8.73,6.18-9.08,8.23-21.49,8.59-34.63.38-14.25.06-28.85.02-43.14-.04-14.35-.07-28.7-.07-43.05,0-4.65-.17-39.04.25-42.86l3.23-.37h0ZM0,49.51v178.1c0,3.76.77,7.7,1.55,10.83.41,1.64.88,3.19,1.43,4.66,1.12,3,2.28,5.65,3.96,8.42,4.84,7.99,10.53,13.76,18.55,18.59,6.8,4.1,16.23,7.01,24.03,7.01h178.1c5.92,0,12.46-1.72,17.76-3.85,3-1.2,7.47-3.68,9.98-5.54,6.3-4.68,10.67-9.29,14.76-16.09,4.09-6.8,7.01-16.21,7.01-24.03V49.51c0-4.77-1.39-11.23-2.98-15.49-.26-.69-.59-1.59-.87-2.27-.34-.83-.64-1.33-.98-2.16-.27-.67-.57-1.3-.98-1.98-2.05-3.42-3.44-6.11-6.25-9.27l-4.52-4.71c-.63-.64-1.01-.9-1.66-1.48-3.42-3.05-5.7-4.11-9.25-6.27l-4.12-1.97c-5.31-2.17-11.98-3.91-17.9-3.91H49.51c-4.78,0-11.24,1.39-15.49,2.98-.69.26-1.59.59-2.27.87l-6.15,3.09c-2.84,1.72-6.6,4.25-8.93,6.59l-4.53,4.71c-1.03,1.15-1.83,2.29-2.75,3.53-3.46,4.66-6.44,11.28-7.84,16.91-.78,3.13-1.55,7.07-1.55,10.83h0Z"/>
  </g>
</svg>