<?xml version="1.0" encoding="UTF-8"?>
<svg id="Layer_2" data-name="Layer 2" xmlns="http://www.w3.org/2000/svg" viewBox="0 0 277.13 277.13">
  <defs>
    <style>
      .cls-1 {
        fill: #fbecf7;
        fill-rule: evenodd;
        stroke-width: 0px;
      }
    </style>
  </defs>
  <g id="Layer_1-2" data-name="Layer 1">
    <path class="cls-1" d="m213.63,87.68c3.59.13,12.47-2.41,16.24-3.77,1.61-.58,3.35-1.56,4.99-1.92-.39,1.02-3.05,4.37-3.93,5.56-.59.8-1.57,1.9-2.23,2.57l-5.85,5.97-5.28,4.33c-.42.3-.98.62-1.35,1-.22,6-.07,11.64-.73,17.62-1.62,14.7-7.02,29.14-13.76,41.48-2.03,3.72-8.14,12.48-11.3,16.23l-3.19,3.65c-.46.48-.76.69-1.19,1.2-1.85,2.24-9.27,9.1-12.09,11.01-2.75,1.86-4.4,3.42-8.15,5.71-17.45,10.63-36.52,16.01-57.91,15.78-11.17-.12-21.87-1.92-31.77-4.97-7.3-2.25-15.78-6.04-22.37-9.97l-2.87-1.95c12.42.44,19.53.8,31.89-3.22,7.41-2.41,12-4.75,18.26-8.71,1.43-.91,4.32-2.78,5.18-3.85-10.5-1.31-13.94-2.05-22.54-8.13l-3.94-3.62c-3.43-4.22-7.1-8.38-8.55-14.48,2.59-.05,5.45.65,8.45.56,2.08-.06,6.49-.38,8.01-1.32l-3.15-.98c-1.11-.35-2.09-.72-3.14-1.12-2.03-.78-3.94-1.8-5.67-2.84-3.92-2.35-5.15-3.96-7.88-6.71-6.28-6.31-10.45-16.96-9.96-25.85,2.53.84,4.77,2.21,7.61,3.07,2.91.88,6.03,1.44,9.25,1.51-.51-.6-3.26-2.49-4.87-4.05-1.37-1.33-2.95-3.12-4.23-4.82-5.72-7.67-8.6-18.4-7.05-28.24.56-3.52,2.82-11.51,4.77-13.26.76,1.11,5.47,6.1,6.92,7.66,2.23,2.41,4.99,4.7,7.65,6.94,5.1,4.3,10.85,8.16,17.47,11.91,6,3.4,13.57,6.39,20.81,8.58,5.92,1.79,18.54,4.58,25.12,4.26-.54-5.57-1.41-8.27-.49-14.23.64-4.15,2.11-8.47,3.81-11.72,2.1-4,3.7-5.96,6.52-8.99,11.05-11.89,31.24-15.26,45.87-6.55,2.15,1.28,4.93,3.18,6.71,4.93.67.65,1.32,1.33,2.09,1.98,3.24.06,10.01-2.5,12.83-3.63,2.33-.94,6.19-2.61,8.37-3.83.84-.47,1.94-1.23,2.84-1.49-.49,3.32-4.78,10.14-6.48,12.07-.72.82-1.41,1.6-2.15,2.47l-2.35,2.26c-2.09,1.73-3.72,2.68-5.23,3.88h0ZM0,49.51v178.1c0,3.76.77,7.7,1.55,10.83.41,1.64.88,3.19,1.43,4.66,1.12,3,2.28,5.65,3.96,8.42,4.84,7.99,10.53,13.76,18.55,18.59,6.8,4.1,16.23,7.01,24.03,7.01h178.1c5.92,0,12.46-1.72,17.76-3.85,3-1.2,7.47-3.68,9.98-5.54,6.3-4.68,10.67-9.29,14.76-16.09,4.09-6.8,7.01-16.21,7.01-24.03V49.51c0-4.77-1.39-11.23-2.98-15.49-.26-.69-.59-1.59-.87-2.27-.34-.83-.64-1.32-.98-2.16-.27-.67-.57-1.3-.98-1.98-2.04-3.42-3.44-6.11-6.25-9.27l-4.53-4.71c-.63-.64-1.01-.9-1.66-1.48-3.42-3.05-5.69-4.11-9.25-6.27l-4.12-1.97c-5.31-2.16-11.98-3.9-17.9-3.9H49.51c-4.78,0-11.24,1.39-15.49,2.98-.69.26-1.59.59-2.27.87l-6.15,3.09c-2.84,1.72-6.6,4.25-8.93,6.59l-4.53,4.71c-1.03,1.16-1.83,2.29-2.75,3.53-3.46,4.66-6.44,11.28-7.84,16.91-.78,3.13-1.55,7.07-1.55,10.83h0Z"/>
  </g>
</svg>